<svg class="logo" role="img" xmlns="http://www.w3.org/2000/svg" viewBox="0 0 425.2 135.52">
  <defs>
    <style>
      .cls-1 { fill: #d60c8c; }
      .cls-2{ fill: #fff; }
    </style>
  </defs>
  <polygon class="cls-1" points="172.7 65.69 185.1 65.69 185.1 27.37 193.82 27.37 193.82 17.02 172.7 17.02 172.7 65.69 172.7 65.69" />
  <path class="cls-1" d="M386.87,244.46a7.09,7.09,0,1,0-7.09-7.09,7.09,7.09,0,0,0,7.09,7.09Z" transform="translate(-208 -230.28)" />
  <path class="cls-2" d="M464,343.93c-1.23-5.67-2.83-9.21-7.79-10.27,6.38-1.77,10.45-6.56,10.45-16,0-14.07-8.85-17.53-23.64-17.53H419.89v64.37h12.49V338.26h11.51c4.78,0,6.81,2.21,8,7.35L456,364.47h12.57Zm-22-15.67h-9.65v-18h10.53c7.71,0,11,2.66,11,8.86C453.89,326,450.26,328.26,442,328.26Z" transform="translate(-208 -230.28)" />
  <path class="cls-2" d="M522.68,339.15v-39H510.2v38.34c0,12.22-2.66,17.17-12.66,17.17-9.74,0-12.57-4.6-12.57-17.35V300.1H472.48v39c0,19,6.29,26.65,25.06,26.65s25.14-7.62,25.14-26.65Z" transform="translate(-208 -230.28)" />
  <path class="cls-2" d="M578.78,347.11c0-15.13-11.69-18.85-23.46-21.33-8.94-1.95-13.64-3.72-13.64-8.68,0-4.69,3.81-8.14,11.6-8.14a15.31,15.31,0,0,1,13.64,7.61l9.91-6c-4.78-7.62-12.3-11.78-23.55-11.78-15.4,0-24,7.44-24,18.68,0,12.05,7.88,16.38,21.78,19.3,11.15,2.4,15.32,4.79,15.32,10.63s-6.47,8.23-12.13,8.23c-8.06,0-12.84-3.54-16.21-8.85l-10.18,6.11c5.4,8.32,12.75,12.93,26.12,12.93,15.14,0,24.79-6.64,24.79-18.69Z" transform="translate(-208 -230.28)" />
  <polygon class="cls-2" points="425.2 80.27 425.2 69.82 373.76 69.82 373.76 80.27 393.24 80.27 393.24 134.19 405.72 134.19 405.72 80.27 425.2 80.27 425.2 80.27" />
  <polygon class="cls-2" points="204.63 80.27 204.63 69.82 153.19 69.82 153.19 80.27 172.67 80.27 172.67 134.19 185.16 134.19 185.16 80.27 204.63 80.27 204.63 80.27" />
  <path class="cls-2" d="M455.13,278.62c0-15.14-11.68-18.86-23.46-21.34-8.94-1.94-13.63-3.71-13.63-8.67,0-4.69,3.8-8.15,11.59-8.15a15.3,15.3,0,0,1,13.64,7.62l9.92-6c-4.79-7.62-12.31-11.78-23.56-11.78-15.4,0-24,7.44-24,18.68,0,12,7.88,16.38,21.78,19.3,11.16,2.39,15.32,4.78,15.32,10.63s-6.47,8.23-12.13,8.23c-8.06,0-12.84-3.54-16.2-8.85l-10.18,6.11c5.4,8.32,12.74,12.92,26.11,12.92,15.14,0,24.79-6.64,24.79-18.68Z" transform="translate(-208 -230.28)" />
  <polygon class="cls-2" points="300.24 11.78 300.24 1.33 248.8 1.33 248.8 11.78 268.28 11.78 268.28 65.69 280.76 65.69 280.76 11.78 300.24 11.78 300.24 11.78" />
  <path class="cls-2" d="M245.36,231.61h-16.2L208,296h12.31l4.78-14.87h24L254,296h12.93ZM228.1,271.1,237,243.65l8.85,27.45Z" transform="translate(-208 -230.28)" />
  <path class="cls-2" d="M318.37,278.62c0-15.14-11.69-18.86-23.46-21.34-8.94-1.94-13.64-3.71-13.64-8.67,0-4.69,3.81-8.15,11.6-8.15a15.31,15.31,0,0,1,13.64,7.62l9.91-6c-4.78-7.62-12.3-11.78-23.55-11.78-15.4,0-24,7.44-24,18.68,0,12,7.88,16.38,21.78,19.3C301.81,270.65,306,273,306,278.89s-6.46,8.23-12.12,8.23c-8.06,0-12.84-3.54-16.21-8.85l-10.18,6.11c5.4,8.32,12.75,12.92,26.12,12.92,15.14,0,24.79-6.64,24.79-18.68Z" transform="translate(-208 -230.28)" />
  <path class="cls-2" d="M373.52,278.62c0-15.14-11.69-18.86-23.47-21.34-8.94-1.94-13.63-3.71-13.63-8.67,0-4.69,3.81-8.15,11.6-8.15a15.29,15.29,0,0,1,13.63,7.62l9.92-6c-4.78-7.62-12.31-11.78-23.55-11.78-15.41,0-24,7.44-24,18.68,0,12,7.88,16.38,21.78,19.3,11.16,2.39,15.32,4.78,15.32,10.63s-6.46,8.23-12.13,8.23c-8.06,0-12.84-3.54-16.2-8.85l-10.18,6.11c5.4,8.32,12.75,12.92,26.11,12.92,15.14,0,24.8-6.64,24.8-18.68Z" transform="translate(-208 -230.28)" />
</svg>